<?xml version="1.0" encoding="UTF-8"?>
<!-- Generated by Pixelmator Pro 3.8 -->
<svg width="128" height="128" viewBox="0 0 128 128" xmlns="http://www.w3.org/2000/svg">
    <g id="BPHelioslogo">
        <path id="Path" fill="#009900" stroke="none" d="M 90.065643 14.916901 C 90.065643 17.703209 89.080246 21.576851 85.138649 21.576851 C 80.381546 21.576851 80.381546 16.242096 80.381546 15.120781 C 80.381546 13.999458 80.381546 8.290939 85.274567 8.290939 C 89.725853 8.290939 90.065643 13.217941 90.065643 14.916901 Z M 80.415527 0 L 77.221474 0 L 77.221474 20.557472 L 77.153519 23.615601 L 80.245628 23.615601 L 80.313591 21.033173 C 80.733276 21.727089 81.302002 22.319016 81.978577 22.766129 C 83.10968 23.501373 84.435448 23.880173 85.784256 23.853462 C 88.143074 23.906731 90.382668 22.818573 91.798592 20.931244 C 92.648071 19.809921 93.429596 18.009026 93.429596 14.679047 C 93.429596 10.94133 92.2743 9.242355 91.42482 8.256958 C 89.861771 6.490044 87.721069 6.082291 85.988136 6.082291 C 82.114487 6.082291 80.857262 8.222984 80.415527 9.004509 Z"/>
        <path id="path1" fill="#009900" stroke="none" d="M 98.968224 15.596489 C 98.968224 14.067421 98.968224 8.63073 104.065117 8.63073 C 107.836815 8.63073 108.754265 11.824783 108.754265 14.916901 C 108.754265 16.14016 108.584366 18.586678 107.361107 20.251656 C 106.273766 21.746742 104.574799 21.916641 103.7593 21.916641 C 99.274033 21.950615 98.968224 17.703209 98.968224 15.596489 Z M 95.876106 30.24157 L 99.036179 30.24157 L 99.036179 21.746742 C 99.953621 23.241829 101.788506 24.295189 104.26899 24.295189 C 108.346504 24.295189 112.05024 21.508888 112.05024 15.120781 C 112.05024 8.732674 108.550385 6.252182 104.880623 6.252182 C 103.487465 6.252182 100.667183 6.659935 99.036179 9.344307 L 98.968224 6.524017 L 95.740189 6.524017 C 95.808151 8.155029 95.842125 8.562775 95.842125 9.310326 L 95.842125 30.24157 Z"/>
        <g id="Group">
            <path id="path2" fill="#009900" fill-rule="evenodd" stroke="none" d="M 70.493576 42.032379 C 68.710724 37.891045 66.513535 33.940666 63.93557 30.24157 C 61.372978 33.950249 59.176666 37.899055 57.377563 42.032379 C 59.923698 44.729424 62.126419 47.731071 63.93557 50.968933 C 65.727669 47.720139 67.931908 44.716438 70.493576 42.032379 Z"/>
            <path id="path3" fill="#009900" fill-rule="evenodd" stroke="none" d="M 57.411545 116.209183 C 59.194393 120.350525 61.391582 124.300896 63.969547 128 C 65.12484 126.23307 68.115021 121.883728 70.52755 116.209183 C 67.991974 113.503365 65.790237 110.503059 63.969547 107.272629 C 62.148861 110.503059 59.947124 113.503365 57.411545 116.209183 Z"/>
            <path id="path4" fill="#009900" fill-rule="evenodd" stroke="none" d="M 57.411545 42.032379 C 54.3013 38.76091 50.888119 35.791443 47.217754 33.163788 C 46.075462 37.522881 45.369747 41.984818 45.111042 46.483665 C 48.422756 48.145531 51.515785 50.211357 54.319427 52.633919 C 54.898792 48.983788 55.937752 45.421638 57.411545 42.032379 Z"/>
            <path id="path5" fill="#009900" fill-rule="evenodd" stroke="none" d="M 70.493576 116.209183 C 73.595894 119.48893 77.009895 122.459122 80.687355 125.077782 C 81.82653 120.718025 82.532188 116.256393 82.794075 111.757889 C 79.489578 110.083649 76.398003 108.018799 73.585693 105.607635 C 72.985664 109.253113 71.947441 112.812744 70.493576 116.209183 Z"/>
            <path id="path6" fill="#009900" fill-rule="evenodd" stroke="none" d="M 45.111042 46.483665 C 41.08046 44.45871 36.8573 42.8423 32.504723 41.658607 C 32.929592 46.149811 33.794556 50.588425 35.087147 54.910538 C 38.761089 55.333244 42.368034 56.212151 45.824604 57.526939 C 45.140385 53.888336 44.900768 50.180077 45.111042 46.483665 Z"/>
            <path id="path7" fill="#009900" fill-rule="evenodd" stroke="none" d="M 82.760101 111.757889 C 86.79068 113.78286 91.01384 115.399269 95.366417 116.582954 C 94.941544 112.091751 94.076576 107.653137 92.783989 103.331032 C 89.108833 102.89595 85.502029 102.005653 82.046532 100.680634 C 82.763496 104.326523 83.003365 108.050156 82.760101 111.757889 Z"/>
            <path id="path8" fill="#009900" fill-rule="evenodd" stroke="none" d="M 39.538437 65.036362 C 37.647026 61.855377 36.152145 58.454803 35.087147 54.910538 C 30.609449 54.385864 26.09078 54.306183 21.597368 54.672676 C 23.540009 58.732819 25.860855 62.600891 28.529144 66.225632 C 32.134403 65.368462 35.83329 64.968887 39.538437 65.036362 Z"/>
            <path id="path9" fill="#009900" fill-rule="evenodd" stroke="none" d="M 88.332703 93.205193 C 90.238083 96.378975 91.733757 99.781334 92.783989 103.331032 C 97.261688 103.855705 101.780357 103.935371 106.273766 103.568878 C 104.323792 99.494812 101.991409 95.615097 99.308014 91.981949 C 95.716469 92.854698 92.028267 93.265778 88.332703 93.205193 Z"/>
            <path id="path10" fill="#009900" fill-rule="evenodd" stroke="none" d="M 28.529144 66.225632 C 24.15225 67.27906 19.88559 68.746788 15.786909 70.608971 C 19.004017 73.773247 22.520334 76.618164 26.28651 79.10379 C 29.376163 77.064224 32.709518 75.42038 36.208466 74.21077 C 33.334724 71.869911 30.756054 69.188553 28.529144 66.225632 Z"/>
            <path id="path11" fill="#009900" fill-rule="evenodd" stroke="none" d="M 101.618607 79.10379 C 98.528954 81.143356 95.195602 82.787201 91.696648 83.996811 C 94.568428 86.328949 97.136864 89.011528 99.341995 91.981949 C 103.722351 90.94043 107.990143 89.472321 112.084229 87.59861 C 108.889053 84.423584 105.382896 81.577675 101.618607 79.10379 Z"/>
            <path id="path12" fill="#009900" fill-rule="evenodd" stroke="none" d="M 36.208466 83.996811 C 32.709518 82.787201 29.376163 81.143356 26.28651 79.10379 C 22.520334 81.589417 19.004017 84.434341 15.786909 87.59861 C 19.879356 89.47641 24.14756 90.944672 28.529144 91.981949 C 30.764999 89.026657 33.342693 86.346313 36.208466 83.996811 Z"/>
            <path id="path13" fill="#009900" fill-rule="evenodd" stroke="none" d="M 91.696648 74.21077 C 95.19268 75.427383 98.525185 77.070801 101.618607 79.10379 C 105.384781 76.618164 108.9011 73.773247 112.11821 70.608971 C 108.025757 68.731178 103.757561 67.262909 99.375969 66.225632 C 97.149063 69.188553 94.570396 71.869911 91.696648 74.21077 Z"/>
            <path id="path14" fill="#009900" fill-rule="evenodd" stroke="none" d="M 28.529144 92.015915 C 25.832479 95.633774 23.509985 99.515976 21.597368 103.602859 C 26.091333 103.951431 30.608265 103.871788 35.087147 103.365013 C 36.152145 99.82074 37.647026 96.420158 39.538437 93.239174 C 35.833534 93.262001 32.138672 92.851456 28.529144 92.015915 Z"/>
            <path id="path15" fill="#009900" fill-rule="evenodd" stroke="none" d="M 99.341995 66.225632 C 102.032707 62.597382 104.365532 58.716934 106.307739 54.638702 C 101.813782 54.290199 97.29686 54.369843 92.81797 54.876556 C 91.752975 58.42083 90.258087 61.821396 88.366684 65.00238 C 92.061234 64.962616 95.746857 65.373398 99.341995 66.225632 Z"/>
            <path id="path16" fill="#009900" fill-rule="evenodd" stroke="none" d="M 45.824604 100.680634 C 42.364178 101.989853 38.759323 102.879662 35.087147 103.331032 C 33.794556 107.653137 32.929592 112.091751 32.504723 116.582954 C 36.8573 115.399269 41.08046 113.78286 45.111042 111.757889 C 44.901794 108.050209 45.141388 104.330826 45.824604 100.680634 Z"/>
            <path id="path17" fill="#009900" fill-rule="evenodd" stroke="none" d="M 82.046532 57.526939 C 85.503105 56.212151 89.110054 55.333244 92.783989 54.910538 C 94.076576 50.588425 94.941544 46.149811 95.366417 41.658607 C 91.01384 42.8423 86.79068 44.45871 82.760101 46.483665 C 83.003334 50.18013 82.763458 53.892517 82.046532 57.526939 Z"/>
            <path id="path18" fill="#009900" fill-rule="evenodd" stroke="none" d="M 45.111042 111.757889 C 45.369747 116.256737 46.075462 120.718689 47.217754 125.077782 C 50.896652 122.46093 54.310829 119.490601 57.411545 116.209183 C 55.937752 112.808121 54.898849 109.234749 54.319427 105.573669 C 51.516312 108.006363 48.423431 110.083504 45.111042 111.757889 Z"/>
            <path id="path19" fill="#009900" fill-rule="evenodd" stroke="none" d="M 82.760101 46.483665 C 82.501381 41.984818 81.795677 37.522881 80.653381 33.163788 C 76.974487 35.780632 73.56031 38.750961 70.459587 42.032379 C 71.91346 45.428818 72.951691 48.988457 73.551712 52.633919 C 76.369705 50.23027 79.460358 48.166031 82.760101 46.483665 Z"/>
            <path id="path20" fill="#99cc00" fill-rule="evenodd" stroke="none" d="M 60.571621 60.109367 C 61.19902 56.892105 62.334545 53.795219 63.93557 50.934959 C 62.126419 47.697083 59.923698 44.695442 57.377563 41.998398 C 55.908287 45.38929 54.869499 48.950867 54.28545 52.599945 C 56.761658 54.757957 58.882973 57.292068 60.571621 60.109367 Z"/>
            <path id="path21" fill="#99cc00" fill-rule="evenodd" stroke="none" d="M 67.299522 98.132195 C 66.666435 101.347862 65.531227 104.443878 63.93557 107.306602 C 65.7332 110.551857 67.936935 113.554893 70.493576 116.243164 C 71.951958 112.836563 72.990295 109.265137 73.585693 105.607635 C 71.102371 103.46965 68.979774 100.945496 67.299522 98.132195 Z"/>
            <path id="path22" fill="#99cc00" fill-rule="evenodd" stroke="none" d="M 45.824604 57.526939 C 48.882378 58.692635 51.737602 60.332375 54.28545 62.385979 C 53.775681 59.155273 53.775681 55.864624 54.28545 52.633919 C 51.478832 50.215263 48.386303 48.149773 45.077061 46.483665 C 44.895687 50.181305 45.146568 53.887474 45.824604 57.526939 Z"/>
            <path id="path23" fill="#99cc00" fill-rule="evenodd" stroke="none" d="M 82.046532 100.680634 C 78.988762 99.514954 76.133537 97.875198 73.585693 95.821602 C 74.101425 99.052765 74.089943 102.346176 73.551712 105.573669 C 76.35833 107.992317 79.450851 110.057808 82.760101 111.723907 C 83.002289 108.027458 82.762421 104.315193 82.046532 100.680634 Z"/>
            <path id="path24" fill="#99cc00" fill-rule="evenodd" stroke="none" d="M 49.154575 66.701355 C 47.568409 63.837639 46.444569 60.741341 45.824604 57.526939 C 42.368034 56.212151 38.761089 55.333244 35.087147 54.910538 C 36.152145 58.454803 37.647026 61.855377 39.538437 65.036362 C 42.812233 65.073494 46.058872 65.635635 49.154575 66.701355 Z"/>
            <path id="path25" fill="#99cc00" fill-rule="evenodd" stroke="none" d="M 78.71656 91.540207 C 80.302727 94.403931 81.426575 97.500214 82.046532 100.714622 C 85.506966 102.023834 89.111816 102.913628 92.783989 103.365013 C 91.718987 99.82074 90.224113 96.420158 88.332703 93.239174 C 85.060997 93.150955 81.820427 92.578415 78.71656 91.540207 Z"/>
            <path id="path26" fill="#99cc00" fill-rule="evenodd" stroke="none" d="M 36.208466 74.21077 C 39.30423 73.141037 42.549702 72.567627 45.824604 72.51181 C 43.350456 70.374039 41.239033 67.849518 39.572414 65.036362 C 35.868046 64.985809 32.171238 65.385147 28.563124 66.225632 C 30.768257 69.196053 33.336685 71.878639 36.208466 74.21077 Z"/>
            <path id="path27" fill="#99cc00" fill-rule="evenodd" stroke="none" d="M 91.696648 83.996811 C 88.600891 85.066551 85.355415 85.639961 82.080513 85.69577 C 84.554665 87.833534 86.666084 90.358063 88.332703 93.171219 C 92.039383 93.22979 95.738571 92.818771 99.341995 91.947968 C 97.117966 89.0037 94.551476 86.334549 91.696648 83.996811 Z"/>
            <path id="path28" fill="#99cc00" fill-rule="evenodd" stroke="none" d="M 44.63533 79.10379 C 41.581814 77.935959 38.736397 76.283783 36.208466 74.21077 C 32.709518 75.42038 29.376163 77.064224 26.28651 79.10379 C 29.376163 81.143356 32.709518 82.787201 36.208466 83.996811 C 38.74477 81.935905 41.588169 80.284897 44.63533 79.10379 Z"/>
            <path id="path29" fill="#99cc00" fill-rule="evenodd" stroke="none" d="M 83.235809 79.10379 C 86.29615 80.279099 89.151619 81.930458 91.696648 83.996811 C 95.19268 82.780197 98.525185 81.13678 101.618607 79.10379 C 98.528954 77.064224 95.195602 75.42038 91.696648 74.21077 C 89.164848 76.296265 86.306137 77.949501 83.235809 79.10379 Z"/>
            <path id="path30" fill="#99cc00" fill-rule="evenodd" stroke="none" d="M 39.538437 93.205193 C 41.215755 90.399628 43.325832 87.876709 45.790627 85.729752 C 42.51572 85.673935 39.270252 85.10054 36.174488 84.030792 C 33.302708 86.36293 30.734278 89.045509 28.529144 92.015915 C 32.13726 92.856415 35.834068 93.255753 39.538437 93.205193 Z"/>
            <path id="path31" fill="#99cc00" fill-rule="evenodd" stroke="none" d="M 88.332703 65.036362 C 86.655388 67.841934 84.545303 70.364853 82.080513 72.51181 C 85.355415 72.567627 88.600891 73.141037 91.696648 74.21077 C 94.568428 71.878639 97.136864 69.196053 99.341995 66.225632 C 95.737053 65.3666 92.037933 64.966995 88.332703 65.036362 Z"/>
            <path id="path32" fill="#99cc00" fill-rule="evenodd" stroke="none" d="M 49.154575 91.540207 C 46.058872 92.605927 42.812233 93.16806 39.538437 93.205193 C 37.647026 96.386177 36.152145 99.786758 35.087147 103.331032 C 38.762306 102.89595 42.369114 102.005653 45.824604 100.680634 C 46.45039 97.478615 47.574005 94.394409 49.154575 91.540207 Z"/>
            <path id="path33" fill="#99cc00" fill-rule="evenodd" stroke="none" d="M 78.71656 66.701355 C 81.812263 65.635635 85.058899 65.073494 88.332703 65.036362 C 90.238083 61.862587 91.733757 58.460228 92.783989 54.910538 C 89.110054 55.333244 85.503105 56.212151 82.046532 57.526939 C 81.442062 60.745605 80.317345 63.844315 78.71656 66.701355 Z"/>
            <path id="path34" fill="#99cc00" fill-rule="evenodd" stroke="none" d="M 60.571621 98.132195 C 58.891365 100.945496 56.768768 103.46965 54.28545 105.607635 C 54.86956 109.26767 55.908298 112.840469 57.377563 116.243164 C 59.923698 113.54612 62.126419 110.544479 63.93557 107.306602 C 62.354477 104.437225 61.220123 101.343529 60.571621 98.132195 Z"/>
            <path id="path35" fill="#99cc00" fill-rule="evenodd" stroke="none" d="M 54.28545 95.855591 C 51.742386 97.916168 48.886002 99.556587 45.824604 100.714622 C 45.124557 104.351219 44.884819 108.06144 45.111042 111.757889 C 48.415539 110.083649 51.507114 108.018799 54.319427 105.607635 C 53.781193 102.380157 53.769718 99.086746 54.28545 95.855591 Z"/>
            <path id="path36" fill="#99cc00" fill-rule="evenodd" stroke="none" d="M 67.299522 60.109367 C 68.990288 57.303581 71.111565 54.780975 73.585693 52.633919 C 73.006325 48.983788 71.967369 45.421638 70.493576 42.032379 C 67.957993 44.738205 65.756256 47.738503 63.93557 50.968933 C 65.541801 53.814705 66.677757 56.901283 67.299522 60.109367 Z"/>
            <path id="path37" fill="#99cc00" fill-rule="evenodd" stroke="none" d="M 73.585693 62.385979 C 76.123962 60.318428 78.981529 58.677338 82.046532 57.526939 C 82.746582 53.890343 82.98632 50.180115 82.760101 46.483665 C 79.455605 48.157906 76.364021 50.222763 73.551712 52.633919 C 74.089943 55.861412 74.101425 59.154816 73.585693 62.385979 Z"/>
            <path id="path38" fill="#ffffff" fill-rule="evenodd" stroke="none" d="M 60.605595 69.963356 C 59.004639 67.065132 56.858559 64.503685 54.28545 62.419952 C 54.830845 65.680878 55.971115 68.813744 57.649399 71.662323 C 55.149895 69.504517 52.268715 67.83342 49.154575 66.735321 C 50.776237 69.619308 52.919273 72.177124 55.474728 74.278732 C 52.385044 73.094894 49.099113 72.506882 45.790627 72.545792 C 48.299355 74.700333 51.193226 76.36055 54.319427 77.438805 C 51.012951 77.386993 47.726711 77.963531 44.63533 79.137772 C 47.732738 80.289932 51.014797 80.86573 54.319427 80.836731 C 51.193226 81.914978 48.299355 83.575211 45.790627 85.729752 C 49.099113 85.768661 52.385044 85.180649 55.474728 83.996811 C 52.911629 86.090691 50.767288 88.650063 49.154575 91.540207 C 52.266045 90.43634 55.14621 88.765839 57.649399 86.61322 C 55.95657 89.45491 54.815277 92.590591 54.28545 95.855591 C 56.833885 93.746902 58.975746 91.190491 60.605595 88.31218 C 59.993454 91.568329 59.993454 94.910034 60.605595 98.166176 C 62.287914 95.319496 63.428459 92.185852 63.969547 88.923813 C 64.504944 92.187347 65.645866 95.322014 67.333496 98.166176 C 67.945648 94.910034 67.945648 91.568329 67.333496 88.31218 C 68.954308 91.196732 71.097466 93.7547 73.653648 95.855591 C 73.111267 92.588806 71.958534 89.453369 70.255722 86.61322 C 72.767311 88.771927 75.659775 90.442871 78.784515 91.540207 C 77.171806 88.650063 75.027473 86.090691 72.464371 83.996811 C 75.554054 85.180649 78.839981 85.768661 82.148476 85.729752 C 79.63308 83.576401 76.741661 81.906067 73.619667 80.802765 C 76.926147 80.854568 80.212379 80.27803 83.303764 79.10379 C 80.207146 77.94873 76.924545 77.372833 73.619667 77.404831 C 76.745872 76.326584 79.63974 74.666351 82.148476 72.51181 C 78.839981 72.4729 75.554054 73.060913 72.464371 74.244751 C 75.037384 72.15168 77.193031 69.592575 78.818504 66.701355 C 75.693756 67.798691 72.801292 69.469635 70.289696 71.628342 C 71.992516 68.788193 73.145248 65.652771 73.687622 62.385979 C 71.139191 64.494659 68.99733 67.051071 67.367485 69.929382 C 67.979622 66.673233 67.979622 63.331535 67.367485 60.075386 C 65.679848 62.919548 64.538925 66.054214 64.003525 69.317757 C 63.468128 66.054214 62.327206 62.919548 60.63958 60.075386 C 59.998623 63.339134 59.987095 66.695282 60.605595 69.963356 Z"/>
            <path id="path39" fill="#ffe600" fill-rule="evenodd" stroke="none" d="M 60.605595 69.963356 C 59.993454 66.707222 59.993454 63.365509 60.605595 60.109367 C 58.925343 57.296074 56.80275 54.771912 54.319427 52.633919 C 53.79269 55.863266 53.79269 59.156631 54.319427 62.385979 C 56.856354 64.5103 58.986317 67.077766 60.605595 69.963356 Z"/>
            <path id="path40" fill="#ffe600" fill-rule="evenodd" stroke="none" d="M 67.265541 88.278198 C 67.877686 91.534348 67.877686 94.876045 67.265541 98.132195 C 68.956306 100.937981 71.077583 103.460579 73.551712 105.607635 C 74.073128 102.378754 74.084595 99.088028 73.585693 95.855591 C 71.028862 93.742004 68.885956 91.172821 67.265541 88.278198 Z"/>
            <path id="path41" fill="#ffe600" fill-rule="evenodd" stroke="none" d="M 54.28545 62.385979 C 51.742386 60.325386 48.886002 58.684975 45.824604 57.526939 C 46.429073 60.745605 47.553791 63.844315 49.154575 66.701355 C 52.272259 67.791748 55.154819 69.463638 57.649399 71.628342 C 55.965946 68.782204 54.825314 65.648346 54.28545 62.385979 Z"/>
            <path id="path42" fill="#ffe600" fill-rule="evenodd" stroke="none" d="M 73.585693 95.855591 C 76.123962 97.923141 78.981529 99.564232 82.046532 100.714622 C 81.442062 97.495964 80.317345 94.397247 78.71656 91.540207 C 75.598022 90.429413 72.707924 88.759827 70.187759 86.61322 C 71.9105 89.443802 73.064682 92.583183 73.585693 95.855591 Z"/>
            <path id="path43" fill="#ffe600" fill-rule="evenodd" stroke="none" d="M 55.508705 74.244751 C 52.945606 72.150871 50.80127 69.591499 49.188557 66.701355 C 46.09285 65.635635 42.84621 65.073494 39.572414 65.036362 C 41.249733 67.841934 43.359814 70.364853 45.824604 72.51181 C 49.132858 72.475769 52.418255 73.063675 55.508705 74.244751 Z"/>
            <path id="path44" fill="#ffe600" fill-rule="evenodd" stroke="none" d="M 72.396416 83.996811 C 74.959518 86.090691 77.103851 88.650063 78.71656 91.540207 C 81.812263 92.605927 85.058899 93.16806 88.332703 93.205193 C 86.655388 90.399628 84.545303 87.876709 82.080513 85.729752 C 78.772026 85.768661 75.486099 85.180649 72.396416 83.996811 Z"/>
            <path id="path45" fill="#ffe600" fill-rule="evenodd" stroke="none" d="M 54.319427 77.438805 C 51.193226 76.36055 48.299355 74.700333 45.790627 72.545792 C 42.51572 72.601601 39.270252 73.175003 36.174488 74.244751 C 38.707176 76.31089 41.551441 77.962402 44.601353 79.137772 C 47.702515 77.956131 51.001305 77.379425 54.319427 77.438805 Z"/>
            <path id="path46" fill="#ffe600" fill-rule="evenodd" stroke="none" d="M 73.551712 80.802765 C 76.673706 81.906067 79.565117 83.576401 82.080513 85.729752 C 85.355415 85.673935 88.600891 85.10054 91.696648 84.030792 C 89.156456 81.957413 86.29982 80.305382 83.235809 79.137772 C 80.142197 80.300507 76.85601 80.865494 73.551712 80.802765 Z"/>
            <path id="path47" fill="#ffe600" fill-rule="evenodd" stroke="none" d="M 44.63533 79.10379 C 41.581814 80.271622 38.736397 81.923798 36.208466 83.996811 C 39.30423 85.066551 42.549702 85.639961 45.824604 85.69577 C 48.333336 83.541229 51.227203 81.881004 54.353409 80.802765 C 51.034817 80.868164 47.734886 80.29126 44.63533 79.10379 Z"/>
            <path id="path48" fill="#ffe600" fill-rule="evenodd" stroke="none" d="M 83.235809 79.10379 C 86.29615 77.928482 89.151619 76.27713 91.696648 74.21077 C 88.600891 73.141037 85.355415 72.567627 82.080513 72.51181 C 79.571785 74.666351 76.677917 76.326584 73.551712 77.404831 C 76.856812 77.37011 80.1399 77.946091 83.235809 79.10379 Z"/>
            <path id="path49" fill="#ffe600" fill-rule="evenodd" stroke="none" d="M 55.508705 83.996811 C 52.419025 85.180649 49.133095 85.768661 45.824604 85.729752 C 43.350456 87.867523 41.239033 90.392044 39.572414 93.205193 C 42.844673 93.151489 46.08873 92.589806 49.188557 91.540207 C 50.779549 88.635162 52.927135 86.071915 55.508705 83.996811 Z"/>
            <path id="path50" fill="#ffe600" fill-rule="evenodd" stroke="none" d="M 72.396416 74.244751 C 75.486099 73.060913 78.772026 72.4729 82.080513 72.51181 C 84.554665 70.374039 86.666084 67.849518 88.332703 65.036362 C 85.06044 65.090065 81.816391 65.651764 78.71656 66.701355 C 77.103851 69.591499 74.959518 72.150871 72.396416 74.244751 Z"/>
            <path id="path51" fill="#ffe600" fill-rule="evenodd" stroke="none" d="M 60.571621 98.132195 C 61.2047 101.347862 62.339905 104.443878 63.93557 107.306602 C 65.522041 104.439667 66.656708 101.345139 67.299522 98.132195 C 65.617203 95.285515 64.476662 92.151886 63.93557 88.889832 C 63.409966 92.15593 62.268391 95.292366 60.571621 98.132195 Z"/>
            <path id="path52" fill="#ffe600" fill-rule="evenodd" stroke="none" d="M 60.605595 88.278198 C 58.995533 91.170181 56.850807 93.730011 54.28545 95.821602 C 53.775681 99.052299 53.775681 102.342957 54.28545 105.573669 C 56.759571 103.426605 58.880848 100.903999 60.571621 98.098221 C 59.988365 94.849808 59.999874 91.522491 60.605595 88.278198 Z"/>
            <path id="path53" fill="#ffe600" fill-rule="evenodd" stroke="none" d="M 49.154575 91.540207 C 47.568409 94.403931 46.444569 97.500214 45.824604 100.714622 C 48.882378 99.548935 51.737602 97.90918 54.28545 95.855591 C 54.830845 92.594658 55.971115 89.4618 57.649399 86.61322 C 55.14621 88.765839 52.266045 90.43634 49.154575 91.540207 Z"/>
            <path id="path54" fill="#ffe600" fill-rule="evenodd" stroke="none" d="M 67.299522 60.109367 C 66.672112 56.892105 65.536591 53.795219 63.93557 50.934959 C 62.343735 53.799438 61.208759 56.894836 60.571621 60.109367 C 62.259251 62.953537 63.400173 66.088181 63.93557 69.35173 C 64.470963 66.088181 65.611885 62.953537 67.299522 60.109367 Z"/>
            <path id="path55" fill="#ffe600" fill-rule="evenodd" stroke="none" d="M 67.265541 69.963356 C 68.877235 67.07251 71.021729 64.51297 73.585693 62.419952 C 74.101479 59.188797 74.090004 55.895386 73.551712 52.6679 C 71.077583 54.814957 68.956306 57.337563 67.265541 60.143341 C 67.911911 63.384773 67.911911 66.721931 67.265541 69.963356 Z"/>
            <path id="path56" fill="#ffe600" fill-rule="evenodd" stroke="none" d="M 78.71656 66.701355 C 80.302727 63.837639 81.426575 60.741341 82.046532 57.526939 C 78.988762 58.692635 76.133537 60.332375 73.585693 62.385979 C 73.043304 65.652771 71.890579 68.788193 70.187759 71.628342 C 72.707924 69.481735 75.598022 67.812149 78.71656 66.701355 Z"/>
        </g>
        <path id="path57" fill="none" stroke="none" d="M 15.786909 0 L 112.11821 0 L 112.11821 128 L 15.786909 128 Z"/>
    </g>
</svg>
